<svg version="1.0" xmlns="http://www.w3.org/2000/svg"
 width="25.000000pt" height="25.000000pt" viewBox="0 0 225.000000 225.000000"
 preserveAspectRatio="xMidYMid meet">

<g transform="translate(0.000000,225.000000) scale(0.100000,-0.100000)"
fill="#000000" stroke="none">
<path d="M1590 1435 c-25 -30 2 -53 180 -156 l179 -104 -917 -5 c-504 -3 -923
-9 -929 -13 -17 -11 -17 -53 0 -64 6 -4 425 -10 929 -13 l917 -5 -180 -104
c-100 -57 -183 -111 -186 -119 -8 -20 10 -46 34 -50 19 -3 520 280 536 302 22
32 -3 51 -256 197 -141 82 -266 149 -276 149 -10 0 -24 -7 -31 -15z"/>
</g>
</svg>