<svg version="1.0" xmlns="http://www.w3.org/2000/svg"
 width="25.000000pt" height="25.000000pt" viewBox="1000 500 5000.000000 5000.000000"
 preserveAspectRatio="xMidYMid meet">

<g transform="translate(0.000000,5000.000000) scale(0.100000,-0.100000)"
fill="#000000" stroke="none">
<path d="M24893 41326 c-62 -20 -123 -59 -169 -108 -23 -24 -1186 -1393 -2585
-3043 -1400 -1650 -4436 -5229 -6748 -7954 -2312 -2725 -4221 -4977 -4242
-5005 -86 -113 -99 -261 -34 -391 14 -27 100 -138 191 -245 92 -107 188 -220
214 -252 26 -31 1255 -1479 2731 -3219 1476 -1739 2698 -3178 2714 -3198 17
-20 1771 -2088 3898 -4596 2630 -3099 3885 -4572 3919 -4598 63 -46 131 -67
218 -67 87 0 155 21 218 67 34 26 1641 1913 5039 5918 2743 3234 5002 5896
5018 5916 17 20 822 969 1790 2109 968 1140 1774 2093 1792 2118 45 62 67 134
67 217 0 87 -22 154 -72 221 -22 28 -1175 1389 -2563 3025 -1387 1636 -4424
5215 -6748 7954 -2323 2739 -4245 5002 -4270 5028 -69 72 -153 110 -254 114
-51 2 -98 -2 -124 -11z m5977 -7858 c3226 -3802 5917 -6973 5980 -7048 286
-334 1177 -1384 1193 -1405 17 -23 15 -25 -3184 -3795 -1760 -2075 -3237
-3816 -3282 -3869 -1063 -1259 -6571 -7741 -6577 -7741 -7 0 -1431 1672 -2075
2434 -32 39 -536 633 -1120 1320 -583 687 -1073 1265 -1090 1285 -16 20 -1995
2351 -4396 5181 -2401 2831 -4368 5151 -4372 5156 -4 8 781 945 1152 1374 26
30 526 620 1111 1310 585 690 1116 1316 1179 1390 64 75 2251 2652 4861 5728
2609 3076 4747 5592 4750 5592 3 0 2645 -3110 5870 -6912z"/>
</g>
</svg>
