<svg version="1.0" xmlns="http://www.w3.org/2000/svg"
 width="25.000000pt" height="25.000000pt" viewBox="0 0 1000.000000 896.000000"
 preserveAspectRatio="xMidYMid meet">

<g transform="translate(0.000000,896.000000) scale(0.100000,-0.100000)"
fill="#000000" stroke="none">
<path d="M2370 8275 c-596 -74 -1096 -309 -1480 -695 -168 -168 -283 -331
-381 -535 -173 -363 -213 -725 -133 -1194 32 -192 64 -312 129 -495 166 -467
409 -904 768 -1381 291 -386 283 -376 601 -730 424 -470 1017 -1044 1691
-1635 72 -63 148 -130 170 -150 106 -97 174 -157 201 -180 16 -14 107 -92 202
-173 95 -82 275 -234 399 -338 124 -104 260 -221 303 -259 43 -39 90 -80 104
-91 l27 -21 32 25 c18 14 46 37 62 52 17 14 113 97 214 183 101 86 238 204
304 262 66 58 167 145 226 193 58 49 174 150 256 226 83 75 204 184 270 241
564 488 1271 1175 1699 1650 247 274 348 396 527 634 225 299 232 309 387 554
55 87 174 298 247 437 150 289 288 695 334 988 71 442 45 764 -86 1092 -87
216 -181 367 -349 558 -236 268 -597 514 -928 632 -223 79 -451 133 -663 156
-170 18 -592 7 -757 -20 -499 -81 -854 -255 -1195 -586 -186 -181 -346 -380
-506 -633 -49 -78 -93 -142 -97 -142 -3 0 -18 21 -34 48 -225 388 -573 777
-875 977 -268 177 -591 295 -935 340 -169 23 -588 28 -734 10z m540 -105 c440
-33 744 -128 1050 -328 309 -201 620 -546 874 -970 54 -90 71 -112 85 -106 18
8 49 10 70 3 10 -3 44 44 103 139 197 322 373 540 612 761 132 122 396 288
562 354 423 169 1074 205 1573 87 200 -48 424 -132 576 -218 210 -118 344
-218 499 -370 269 -264 438 -563 506 -895 74 -365 31 -786 -132 -1272 -111
-331 -411 -884 -653 -1205 -23 -30 -91 -122 -151 -205 -148 -203 -292 -381
-406 -497 -14 -16 -48 -54 -75 -85 -261 -313 -1101 -1138 -1633 -1603 -41 -36
-115 -102 -164 -148 -153 -139 -562 -497 -716 -627 -46 -38 -180 -152 -297
-252 -117 -101 -217 -183 -222 -183 -6 0 -93 71 -193 158 -101 87 -241 207
-313 267 -126 106 -398 337 -540 459 -58 51 -197 175 -420 377 -22 20 -70 63
-106 95 -433 385 -767 705 -1111 1062 -158 164 -316 331 -350 370 -35 39 -121
138 -192 219 -279 320 -618 788 -791 1093 -87 153 -240 463 -282 570 -101 259
-147 422 -189 665 -25 142 -28 185 -29 385 0 244 6 288 66 500 36 125 134 332
215 451 199 293 502 550 839 713 145 71 217 99 366 141 310 89 632 120 969 95z"/>
</g>
</svg>