<svg version="1.0" xmlns="http://www.w3.org/2000/svg"
 width="25.0pt" height="25.0pt" viewBox="20 60 200.000000 200.000000"
 preserveAspectRatio="xMidYMid meet">

<g transform="translate(0.000000,200.000000) scale(0.100000,-0.100000)"
fill="#000000" stroke="none">
<path d="M785 1389 c-97 -14 -234 -56 -320 -99 -305 -150 -319 -404 -30 -565
144 -80 345 -125 565 -125 353 0 649 116 744 290 114 209 -116 430 -514 495
-103 16 -343 19 -445 4z m421 -20 c343 -47 583 -228 543 -407 -45 -201 -354
-342 -749 -342 -283 0 -522 70 -655 192 -70 64 -98 116 -98 184 0 143 144 269
388 339 50 14 117 29 150 34 87 13 331 13 421 0z"/>
</g>
</svg>