<svg version="1.0" xmlns="http://www.w3.org/2000/svg"
 width="25.000000pt" height="25.000000pt" viewBox="0 0 225.000000 225.000000"
 preserveAspectRatio="xMidYMid meet">

<g transform="translate(0.000000,225.000000) scale(0.100000,-0.100000)"
fill="#000000" stroke="none">
<path d="M508 1153 c-144 -163 -269 -305 -276 -315 -13 -17 13 -18 682 -18
l695 0 268 303 c148 166 272 308 277 315 6 9 -134 12 -687 12 l-695 0 -264
-297z m1588 262 c-3 -8 -114 -138 -248 -289 l-243 -275 -664 -1 c-629 0 -663
1 -650 17 30 38 484 548 493 555 6 4 305 8 665 8 571 0 652 -2 647 -15z"/>
</g>
</svg>