<svg version="1.0" xmlns="http://www.w3.org/2000/svg"
 width="20.000000pt" height="20.000000pt" viewBox="0 0 600.000000 600.000000"
 preserveAspectRatio="xMidYMid meet">

<g transform="translate(0.000000,600.000000) scale(0.100000,-0.100000)"
fill="#000000" stroke="none">
<path d="M2950 5611 c-19 -15 -93 -70 -165 -121 -71 -52 -161 -117 -200 -145
-38 -29 -311 -227 -605 -440 -1337 -971 -1739 -1263 -1752 -1274 -4 -4 42
-157 101 -341 60 -184 135 -414 166 -510 31 -96 119 -366 195 -600 76 -234
220 -677 320 -985 99 -308 201 -622 226 -697 l46 -138 1722 0 1722 0 36 112
c47 149 635 1959 975 3001 24 76 42 144 40 151 -5 11 -461 345 -2272 1660
-269 195 -497 355 -505 355 -8 0 -31 -13 -50 -28z m538 -408 c262 -190 590
-428 727 -528 138 -99 333 -242 435 -316 102 -74 379 -276 616 -448 l431 -313
-22 -71 c-13 -40 -141 -434 -285 -877 -144 -443 -286 -881 -316 -975 -31 -93
-89 -271 -129 -395 -92 -280 -192 -590 -240 -738 l-36 -112 -1666 2 -1667 3
-62 190 c-34 105 -117 359 -184 565 -144 445 -358 1103 -440 1355 -32 99 -88
270 -123 380 -36 110 -100 305 -141 433 -42 128 -76 235 -76 237 0 2 321 237
713 522 391 284 818 594 947 688 722 526 1025 745 1032 745 5 0 223 -156 486
-347z"/>
</g>
</svg>