<svg version="1.0" xmlns="http://www.w3.org/2000/svg"
 width="25.000000pt" height="25.000000pt" viewBox="0 0 225.000000 225.000000"
 preserveAspectRatio="xMidYMid meet">

<g transform="translate(0.000000,225.000000) scale(0.100000,-0.100000)"
fill="#000000" stroke="none">
<path d="M950 1830 c-135 -35 -233 -92 -336 -194 -79 -79 -98 -104 -137 -186
-55 -116 -77 -210 -77 -332 0 -124 21 -213 74 -323 53 -109 144 -212 246 -280
430 -286 1001 -60 1121 443 29 120 23 273 -15 387 -82 245 -285 433 -529 490
-89 21 -254 18 -347 -5z m344 -40 c120 -30 227 -92 315 -180 87 -86 140 -171
178 -285 23 -69 27 -96 27 -205 0 -109 -4 -136 -27 -205 -38 -114 -91 -199
-179 -287 -257 -256 -678 -261 -948 -12 -294 273 -292 740 5 1012 81 74 216
145 315 166 96 21 223 19 314 -4z"/>
<path d="M1050 1740 c-147 -20 -254 -73 -361 -180 -123 -121 -182 -262 -182
-435 0 -175 54 -305 178 -431 125 -127 269 -187 445 -187 169 0 308 59 430
182 121 122 181 262 183 426 1 111 -14 176 -65 284 -110 231 -378 376 -628
341z m215 -55 c199 -51 367 -219 420 -421 19 -75 19 -203 0 -278 -54 -205
-217 -369 -420 -421 -76 -19 -204 -19 -280 0 -205 54 -368 217 -420 420 -19
76 -19 204 0 280 51 201 214 365 416 419 71 19 210 20 284 1z"/>
</g>
</svg>