<svg version="1.0" xmlns="http://www.w3.org/2000/svg"
 width="25.000000pt" height="25.000000pt" viewBox="0 0 1200.000000 800.000000"
 preserveAspectRatio="xMidYMid meet">

<g transform="translate(0.000000,800.000000) scale(0.100000,-0.100000)"
fill="#000000" stroke="none">
<path d="M5720 6354 c-298 -25 -479 -51 -705 -100 -461 -100 -883 -262 -1301
-499 -235 -134 -541 -346 -528 -367 4 -7 2 -8 -5 -4 -7 5 -31 -8 -59 -30 -795
-642 -1356 -1518 -1596 -2496 -69 -277 -107 -525 -126 -816 -20 -301 -13 -355
50 -387 26 -13 528 -15 4550 -15 4022 0 4524 2 4550 15 57 29 63 59 56 250
-40 970 -342 1833 -912 2601 -161 218 -396 480 -417 467 -6 -3 -7 -1 -3 5 13
21 -300 306 -504 458 -237 177 -449 307 -720 442 -496 248 -992 393 -1567 458
-130 15 -656 27 -763 18z m601 -224 c769 -58 1495 -310 2139 -743 230 -155
428 -321 670 -565 107 -108 199 -196 203 -194 5 1 6 -1 3 -6 -3 -5 37 -62 89
-127 373 -467 650 -1008 805 -1572 88 -321 132 -592 155 -965 l6 -98 -4391 0
-4392 0 7 107 c38 635 179 1177 446 1718 374 759 952 1389 1681 1831 399 242
868 427 1338 528 190 41 388 68 645 89 98 8 473 6 596 -3z"/>
</g>
</svg>